<svg viewBox="0 0 330 330">
  <path fill="currentColor" d="M149.951 3.82C107.296 7.763 69.818 26.75 42.573 58.062c-56.587 65.093-52.518 162.116 9.37 223.018 62.38 61.394 163.84 60.9 225.605-1.11 23.424-23.424 37.848-50.669 45.245-85.188 2.958-13.807 2.958-46.847 0-60.655-15.164-72.736-70.887-123.282-143.5-130.309-13.315-1.232-15.04-1.232-29.342 0zm64.97 78.037c2.712 4.315.37 7.274-29.711 36.861-27.738 27.369-30.82 30.82-32.793 36.738-3.945 11.835-.37 23.424 9.123 30.204 4.438 3.082 6.41 3.699 12.821 3.699 10.356 0 13.438-1.85 33.41-20.958 9.246-8.753 17.999-16.643 19.601-17.506 4.192-2.343 12.082-1.85 16.644.863 12.944 7.89 11.341 33.532-3.699 57.572-7.274 11.466-22.19 24.903-34.519 30.944-43.149 21.081-92.831 4.315-114.406-38.587-6.78-13.314-9-24.78-8.26-41.916.863-22.19 7.767-38.094 23.67-54.244 9.986-10.232 21.698-17.506 35.752-22.437 9.37-3.206 11.342-3.452 37.601-4.069 27.122-.616 32.917-.123 34.766 2.836z"/>
</svg>
